<?xml version="1.0" standalone="no"?>
<!DOCTYPE svg PUBLIC "-//W3C//DTD SVG 20010904//EN"
 "http://www.w3.org/TR/2001/REC-SVG-20010904/DTD/svg10.dtd">
<svg version="1.0" xmlns="http://www.w3.org/2000/svg"
 width="350.000000pt" height="350.000000pt" viewBox="0 0 350.000000 350.000000"
 preserveAspectRatio="xMidYMid meet">
<metadata>
Created by potrace 1.14, written by Peter Selinger 2001-2017
</metadata>
<g transform="translate(0.000000,350.000000) scale(0.100000,-0.100000)"
fill="#000000" stroke="none">
<path d="M2955 2580 l7 -80 -72 30 c-40 17 -74 30 -76 30 -1 0 -10 -21 -20
-46 -21 -54 -20 -55 71 -73 36 -7 65 -16 65 -20 -1 -3 -23 -31 -50 -61 l-50
-55 33 -27 c39 -34 52 -35 71 -5 7 12 26 42 41 66 25 40 28 43 38 25 5 -10 25
-42 44 -71 l34 -51 39 26 c22 14 40 30 40 35 0 9 -39 55 -77 90 -13 11 -23 24
-23 28 0 4 21 10 48 14 26 4 61 13 79 20 l32 14 -16 43 c-9 24 -18 44 -19 46
-2 3 -84 -29 -140 -54 -8 -4 -10 18 -7 75 l5 81 -52 0 -52 0 7 -80z"/>
<path d="M2309 2326 c-2 -2 -27 -6 -55 -10 -128 -15 -238 -78 -374 -215 -58
-58 -130 -137 -160 -174 -49 -62 -56 -67 -67 -50 -30 41 -128 137 -187 183
-208 163 -478 185 -651 53 -138 -105 -212 -246 -220 -418 -13 -263 143 -491
376 -551 118 -30 287 -5 398 59 88 51 212 158 271 234 l25 33 90 -108 c164
-197 310 -307 449 -341 64 -16 197 -16 261 -1 136 33 290 138 358 247 29 46
64 142 73 200 3 21 7 49 10 63 6 32 7 268 1 277 -3 5 -8 29 -11 55 -13 99 -68
211 -136 279 -93 93 -232 163 -347 175 -32 3 -67 7 -79 9 -12 3 -23 3 -25 1z
m123 -250 c107 -32 192 -122 230 -241 31 -96 30 -272 0 -358 -53 -148 -169
-237 -316 -243 -164 -7 -296 88 -482 348 -61 84 -61 80 -3 155 163 212 260
304 356 339 49 17 158 18 215 0z m-1277 -108 c103 -25 213 -109 330 -253 35
-42 37 -48 25 -70 -29 -54 -188 -200 -260 -239 -98 -53 -182 -60 -261 -24 -64
30 -103 67 -134 128 -33 66 -46 168 -30 238 3 12 7 31 9 41 7 28 32 73 58 101
68 76 161 103 263 78z"/>
<path d="M2215 1923 c-43 -9 -44 -10 -33 -55 6 -24 11 -49 11 -55 0 -7 6 -13
13 -13 9 0 3 -22 -18 -67 -30 -66 -122 -333 -116 -338 2 -1 32 5 67 14 l64 16
26 93 c14 52 30 94 35 95 12 3 108 -124 132 -174 21 -42 19 -42 102 -10 l43
17 -41 57 c-22 32 -51 70 -65 85 -32 34 -32 38 8 52 62 21 100 70 110 141 13
97 -56 143 -218 145 -55 1 -109 -1 -120 -3z m196 -98 c24 -8 41 -39 33 -60 -9
-22 -53 -43 -108 -50 l-47 -7 20 51 c10 28 15 51 9 51 -5 0 -7 4 -4 8 6 10 72
15 97 7z"/>
</g>
</svg>
