<svg xmlns="http://www.w3.org/2000/svg" version="1.1" xmlns:xlink="http://www.w3.org/1999/xlink" xmlns:svgjs="http://svgjs.dev/svgjs" width="3000" height="2000" preserveAspectRatio="none" viewBox="0 0 3000 2000"><g mask="url(&quot;#SvgjsMask1020&quot;)" fill="none"><rect width="3000" height="2000" x="0" y="0" fill="rgba(255, 255, 255, 1)"></rect><path d="M1760.94-342.95C1462.88-148.4 1763.94 779.67 1096.07 916.03 428.21 1052.39 130.79 1502.35-233.66 1516.03" stroke="rgba(0, 0, 0, 0.58)" stroke-width="2"></path><path d="M2080.21-237.72C1811.37-183.28 1696.8 503.11 1276.03 508.71 855.26 514.31 873.95 258.71 471.86 258.71 69.77 258.71-121.8 505.85-332.32 508.71" stroke="rgba(0, 0, 0, 0.58)" stroke-width="2"></path><path d="M2029.39-337.49C1638.91-255.37 1569.88 684.68 869.98 759.42 170.08 834.16 26.05 1248.92-289.43 1259.42" stroke="rgba(0, 0, 0, 0.58)" stroke-width="2"></path><path d="M2631.39-349.24C2223.51-103.75 2279.46 1235.25 1700.46 1311.94 1121.47 1388.63 1235 1061.94 769.54 1061.94 304.07 1061.94 79.58 1309.78-161.39 1311.94" stroke="rgba(0, 0, 0, 0.58)" stroke-width="2"></path><path d="M1608.6-71.47C1341.6 42.93 1616.6 734.08 938.61 877.8 260.62 1021.52 7.94 1789.98-401.37 1837.8" stroke="rgba(0, 0, 0, 0.58)" stroke-width="2"></path></g><defs><mask id="SvgjsMask1020"><rect width="3000" height="2000" fill="#ffffff"></rect></mask></defs></svg>