<svg xmlns="http://www.w3.org/2000/svg" version="1.1" xmlns:xlink="http://www.w3.org/1999/xlink" xmlns:svgjs="http://svgjs.dev/svgjs" width="3000" height="2000" preserveAspectRatio="none" viewBox="0 0 3000 2000"><g mask="url(&quot;#SvgjsMask1004&quot;)" fill="none"><rect width="3000" height="2000" x="0" y="0" fill="rgba(255, 255, 255, 1)"></rect><path d="M3536.96 1858.41C3204.81 1849 2946.76 1514.7 2305.47 1358.41 1664.18 1202.12 1983.44 211.91 1689.72-28" stroke="rgba(0, 0, 0, 0.58)" stroke-width="2"></path><path d="M3236.44 1444.82C2859.43 1401.46 2737.58 636.63 1999.54 564.82 1261.51 493.01 1123.94-162.44 762.65-191.63" stroke="rgba(0, 0, 0, 0.58)" stroke-width="2"></path><path d="M3495.95 569.06C3176.3 611.56 2910.3 1378.59 2468.67 1349.06 2027.04 1319.53 2226.41 33.91 1955.03-302.81" stroke="rgba(0, 0, 0, 0.58)" stroke-width="2"></path><path d="M3383.36 1263.34C3150.8 1261.01 2935.33 1013.34 2487.3 1013.34 2039.27 1013.34 2122.99 1312.77 1591.23 1263.34 1059.48 1213.91 1068.61 39.01 695.17-149.23" stroke="rgba(0, 0, 0, 0.58)" stroke-width="2"></path><path d="M3151.49 278.7C2820.02 355.58 2686.96 1243.51 2186.65 1238.7 1686.35 1233.89 1620.58-56.87 1221.82-251.94" stroke="rgba(0, 0, 0, 0.58)" stroke-width="2"></path></g><defs><mask id="SvgjsMask1004"><rect width="3000" height="2000" fill="#ffffff"></rect></mask></defs></svg>