<svg xmlns="http://www.w3.org/2000/svg" version="1.1" xmlns:xlink="http://www.w3.org/1999/xlink" xmlns:svgjs="http://svgjs.dev/svgjs" width="1440" height="560" preserveAspectRatio="none" viewBox="0 0 1440 560"><g mask="url(&quot;#SvgjsMask1001&quot;)" fill="none"><rect width="1440" height="560" x="0" y="0" fill="#0e2a47"></rect><path d="M207.76 266.42L272.71 303.92L272.71 378.92L207.76 416.42L142.81 378.92L142.81 303.92zM272.71 -71.08L337.67 -33.58L337.67 41.42L272.71 78.92L207.76 41.42L207.76 -33.58zM402.62 -71.08L467.58 -33.58L467.58 41.42L402.62 78.92L337.67 41.42L337.67 -33.58zM532.53 -71.08L597.48 -33.58L597.48 41.42L532.53 78.92L467.58 41.42L467.58 -33.58zM597.48 266.42L662.44 303.92L662.44 378.92L597.48 416.42L532.53 378.92L532.53 303.92zM532.53 378.92L597.48 416.42L597.48 491.42L532.53 528.92L467.58 491.42L467.58 416.42zM792.34 -71.08L857.3 -33.58L857.3 41.42L792.34 78.92L727.39 41.42L727.39 -33.58zM857.3 41.42L922.25 78.92L922.25 153.92L857.3 191.42L792.34 153.92L792.34 78.92zM857.3 266.42L922.25 303.92L922.25 378.92L857.3 416.42L792.34 378.92L792.34 303.92zM987.21 491.42L1052.16 528.92L1052.16 603.92L987.21 641.42L922.25 603.92L922.25 528.92zM1182.07 378.92L1247.02 416.42L1247.02 491.42L1182.07 528.92L1117.11 491.42L1117.11 416.42zM1247.02 491.42L1311.97 528.92L1311.97 603.92L1247.02 641.42L1182.07 603.92L1182.07 528.92zM1376.93 41.42L1441.88 78.92L1441.88 153.92L1376.93 191.42L1311.98 153.92L1311.98 78.92z" stroke="#03305d" stroke-width="2"></path><path d="M200.26 266.42 a7.5 7.5 0 1 0 15 0 a7.5 7.5 0 1 0 -15 0zM265.21 303.92 a7.5 7.5 0 1 0 15 0 a7.5 7.5 0 1 0 -15 0zM265.21 378.92 a7.5 7.5 0 1 0 15 0 a7.5 7.5 0 1 0 -15 0zM200.26 416.42 a7.5 7.5 0 1 0 15 0 a7.5 7.5 0 1 0 -15 0zM135.31 378.92 a7.5 7.5 0 1 0 15 0 a7.5 7.5 0 1 0 -15 0zM135.31 303.92 a7.5 7.5 0 1 0 15 0 a7.5 7.5 0 1 0 -15 0zM265.21 -71.08 a7.5 7.5 0 1 0 15 0 a7.5 7.5 0 1 0 -15 0zM330.17 -33.58 a7.5 7.5 0 1 0 15 0 a7.5 7.5 0 1 0 -15 0zM330.17 41.42 a7.5 7.5 0 1 0 15 0 a7.5 7.5 0 1 0 -15 0zM265.21 78.92 a7.5 7.5 0 1 0 15 0 a7.5 7.5 0 1 0 -15 0zM200.26 41.42 a7.5 7.5 0 1 0 15 0 a7.5 7.5 0 1 0 -15 0zM200.26 -33.58 a7.5 7.5 0 1 0 15 0 a7.5 7.5 0 1 0 -15 0zM395.12 -71.08 a7.5 7.5 0 1 0 15 0 a7.5 7.5 0 1 0 -15 0zM460.08 -33.58 a7.5 7.5 0 1 0 15 0 a7.5 7.5 0 1 0 -15 0zM460.08 41.42 a7.5 7.5 0 1 0 15 0 a7.5 7.5 0 1 0 -15 0zM395.12 78.92 a7.5 7.5 0 1 0 15 0 a7.5 7.5 0 1 0 -15 0zM525.03 -71.08 a7.5 7.5 0 1 0 15 0 a7.5 7.5 0 1 0 -15 0zM589.98 -33.58 a7.5 7.5 0 1 0 15 0 a7.5 7.5 0 1 0 -15 0zM589.98 41.42 a7.5 7.5 0 1 0 15 0 a7.5 7.5 0 1 0 -15 0zM525.03 78.92 a7.5 7.5 0 1 0 15 0 a7.5 7.5 0 1 0 -15 0zM589.98 266.42 a7.5 7.5 0 1 0 15 0 a7.5 7.5 0 1 0 -15 0zM654.94 303.92 a7.5 7.5 0 1 0 15 0 a7.5 7.5 0 1 0 -15 0zM654.94 378.92 a7.5 7.5 0 1 0 15 0 a7.5 7.5 0 1 0 -15 0zM589.98 416.42 a7.5 7.5 0 1 0 15 0 a7.5 7.5 0 1 0 -15 0zM525.03 378.92 a7.5 7.5 0 1 0 15 0 a7.5 7.5 0 1 0 -15 0zM525.03 303.92 a7.5 7.5 0 1 0 15 0 a7.5 7.5 0 1 0 -15 0zM589.98 491.42 a7.5 7.5 0 1 0 15 0 a7.5 7.5 0 1 0 -15 0zM525.03 528.92 a7.5 7.5 0 1 0 15 0 a7.5 7.5 0 1 0 -15 0zM460.08 491.42 a7.5 7.5 0 1 0 15 0 a7.5 7.5 0 1 0 -15 0zM460.08 416.42 a7.5 7.5 0 1 0 15 0 a7.5 7.5 0 1 0 -15 0zM784.84 -71.08 a7.5 7.5 0 1 0 15 0 a7.5 7.5 0 1 0 -15 0zM849.8 -33.58 a7.5 7.5 0 1 0 15 0 a7.5 7.5 0 1 0 -15 0zM849.8 41.42 a7.5 7.5 0 1 0 15 0 a7.5 7.5 0 1 0 -15 0zM784.84 78.92 a7.5 7.5 0 1 0 15 0 a7.5 7.5 0 1 0 -15 0zM719.89 41.42 a7.5 7.5 0 1 0 15 0 a7.5 7.5 0 1 0 -15 0zM719.89 -33.58 a7.5 7.5 0 1 0 15 0 a7.5 7.5 0 1 0 -15 0zM914.75 78.92 a7.5 7.5 0 1 0 15 0 a7.5 7.5 0 1 0 -15 0zM914.75 153.92 a7.5 7.5 0 1 0 15 0 a7.5 7.5 0 1 0 -15 0zM849.8 191.42 a7.5 7.5 0 1 0 15 0 a7.5 7.5 0 1 0 -15 0zM784.84 153.92 a7.5 7.5 0 1 0 15 0 a7.5 7.5 0 1 0 -15 0zM849.8 266.42 a7.5 7.5 0 1 0 15 0 a7.5 7.5 0 1 0 -15 0zM914.75 303.92 a7.5 7.5 0 1 0 15 0 a7.5 7.5 0 1 0 -15 0zM914.75 378.92 a7.5 7.5 0 1 0 15 0 a7.5 7.5 0 1 0 -15 0zM849.8 416.42 a7.5 7.5 0 1 0 15 0 a7.5 7.5 0 1 0 -15 0zM784.84 378.92 a7.5 7.5 0 1 0 15 0 a7.5 7.5 0 1 0 -15 0zM784.84 303.92 a7.5 7.5 0 1 0 15 0 a7.5 7.5 0 1 0 -15 0zM979.71 491.42 a7.5 7.5 0 1 0 15 0 a7.5 7.5 0 1 0 -15 0zM1044.66 528.92 a7.5 7.5 0 1 0 15 0 a7.5 7.5 0 1 0 -15 0zM1044.66 603.92 a7.5 7.5 0 1 0 15 0 a7.5 7.5 0 1 0 -15 0zM979.71 641.42 a7.5 7.5 0 1 0 15 0 a7.5 7.5 0 1 0 -15 0zM914.75 603.92 a7.5 7.5 0 1 0 15 0 a7.5 7.5 0 1 0 -15 0zM914.75 528.92 a7.5 7.5 0 1 0 15 0 a7.5 7.5 0 1 0 -15 0zM1174.57 378.92 a7.5 7.5 0 1 0 15 0 a7.5 7.5 0 1 0 -15 0zM1239.52 416.42 a7.5 7.5 0 1 0 15 0 a7.5 7.5 0 1 0 -15 0zM1239.52 491.42 a7.5 7.5 0 1 0 15 0 a7.5 7.5 0 1 0 -15 0zM1174.57 528.92 a7.5 7.5 0 1 0 15 0 a7.5 7.5 0 1 0 -15 0zM1109.61 491.42 a7.5 7.5 0 1 0 15 0 a7.5 7.5 0 1 0 -15 0zM1109.61 416.42 a7.5 7.5 0 1 0 15 0 a7.5 7.5 0 1 0 -15 0zM1304.47 528.92 a7.5 7.5 0 1 0 15 0 a7.5 7.5 0 1 0 -15 0zM1304.47 603.92 a7.5 7.5 0 1 0 15 0 a7.5 7.5 0 1 0 -15 0zM1239.52 641.42 a7.5 7.5 0 1 0 15 0 a7.5 7.5 0 1 0 -15 0zM1174.57 603.92 a7.5 7.5 0 1 0 15 0 a7.5 7.5 0 1 0 -15 0zM1369.43 41.42 a7.5 7.5 0 1 0 15 0 a7.5 7.5 0 1 0 -15 0zM1434.38 78.92 a7.5 7.5 0 1 0 15 0 a7.5 7.5 0 1 0 -15 0zM1434.38 153.92 a7.5 7.5 0 1 0 15 0 a7.5 7.5 0 1 0 -15 0zM1369.43 191.42 a7.5 7.5 0 1 0 15 0 a7.5 7.5 0 1 0 -15 0zM1304.48 153.92 a7.5 7.5 0 1 0 15 0 a7.5 7.5 0 1 0 -15 0zM1304.48 78.92 a7.5 7.5 0 1 0 15 0 a7.5 7.5 0 1 0 -15 0z" fill="#03305d"></path><path d="M45.74 -33.8L89.04 -8.8L89.04 41.2L45.74 66.2L2.44 41.2L2.44 -8.8zM89.04 191.2L132.34 216.2L132.34 266.2L89.04 291.2L45.74 266.2L45.74 216.2zM45.74 266.2L89.04 291.2L89.04 341.2L45.74 366.2L2.44 341.2L2.44 291.2zM45.74 416.2L89.04 441.2L89.04 491.2L45.74 516.2L2.44 491.2L2.44 441.2zM89.04 491.2L132.34 516.2L132.34 566.2L89.04 591.2L45.74 566.2L45.74 516.2zM175.65 41.2L218.95 66.2L218.95 116.2L175.65 141.2L132.34 116.2L132.34 66.2zM132.34 116.2L175.65 141.2L175.65 191.2L132.34 216.2L89.04 191.2L89.04 141.2zM175.65 191.2L218.95 216.2L218.95 266.2L175.65 291.2L132.34 266.2L132.34 216.2zM132.34 266.2L175.65 291.2L175.65 341.2L132.34 366.2L89.04 341.2L89.04 291.2zM175.65 491.2L218.95 516.2L218.95 566.2L175.65 591.2L132.34 566.2L132.34 516.2zM218.95 -33.8L262.25 -8.8L262.25 41.2L218.95 66.2L175.65 41.2L175.65 -8.8zM218.95 116.2L262.25 141.2L262.25 191.2L218.95 216.2L175.65 191.2L175.65 141.2zM218.95 266.2L262.25 291.2L262.25 341.2L218.95 366.2L175.65 341.2L175.65 291.2zM348.86 341.2L392.16 366.2L392.16 416.2L348.86 441.2L305.56 416.2L305.56 366.2zM305.56 416.2L348.86 441.2L348.86 491.2L305.56 516.2L262.25 491.2L262.25 441.2zM435.46 41.2L478.77 66.2L478.77 116.2L435.46 141.2L392.16 116.2L392.16 66.2zM435.46 491.2L478.77 516.2L478.77 566.2L435.46 591.2L392.16 566.2L392.16 516.2zM522.07 41.2L565.37 66.2L565.37 116.2L522.07 141.2L478.77 116.2L478.77 66.2zM522.07 191.2L565.37 216.2L565.37 266.2L522.07 291.2L478.77 266.2L478.77 216.2zM522.07 341.2L565.37 366.2L565.37 416.2L522.07 441.2L478.77 416.2L478.77 366.2zM478.77 416.2L522.07 441.2L522.07 491.2L478.77 516.2L435.46 491.2L435.46 441.2zM522.07 491.2L565.37 516.2L565.37 566.2L522.07 591.2L478.77 566.2L478.77 516.2zM608.67 41.2L651.98 66.2L651.98 116.2L608.67 141.2L565.37 116.2L565.37 66.2zM565.37 116.2L608.67 141.2L608.67 191.2L565.37 216.2L522.07 191.2L522.07 141.2zM565.37 266.2L608.67 291.2L608.67 341.2L565.37 366.2L522.07 341.2L522.07 291.2zM608.67 341.2L651.98 366.2L651.98 416.2L608.67 441.2L565.37 416.2L565.37 366.2zM695.28 41.2L738.58 66.2L738.58 116.2L695.28 141.2L651.98 116.2L651.98 66.2zM695.28 341.2L738.58 366.2L738.58 416.2L695.28 441.2L651.98 416.2L651.98 366.2zM695.28 491.2L738.58 516.2L738.58 566.2L695.28 591.2L651.98 566.2L651.98 516.2zM738.58 266.2L781.88 291.2L781.88 341.2L738.58 366.2L695.28 341.2L695.28 291.2zM781.88 491.2L825.19 516.2L825.19 566.2L781.88 591.2L738.58 566.2L738.58 516.2zM868.49 41.2L911.79 66.2L911.79 116.2L868.49 141.2L825.19 116.2L825.19 66.2zM825.19 266.2L868.49 291.2L868.49 341.2L825.19 366.2L781.88 341.2L781.88 291.2zM868.49 491.2L911.79 516.2L911.79 566.2L868.49 591.2L825.19 566.2L825.19 516.2zM955.09 41.2L998.4 66.2L998.4 116.2L955.09 141.2L911.79 116.2L911.79 66.2zM911.79 116.2L955.09 141.2L955.09 191.2L911.79 216.2L868.49 191.2L868.49 141.2zM911.79 266.2L955.09 291.2L955.09 341.2L911.79 366.2L868.49 341.2L868.49 291.2zM911.79 416.2L955.09 441.2L955.09 491.2L911.79 516.2L868.49 491.2L868.49 441.2zM955.09 491.2L998.4 516.2L998.4 566.2L955.09 591.2L911.79 566.2L911.79 516.2zM998.4 -33.8L1041.7 -8.8L1041.7 41.2L998.4 66.2L955.09 41.2L955.09 -8.8zM1041.7 41.2L1085 66.2L1085 116.2L1041.7 141.2L998.4 116.2L998.4 66.2zM998.4 116.2L1041.7 141.2L1041.7 191.2L998.4 216.2L955.09 191.2L955.09 141.2zM1041.7 191.2L1085 216.2L1085 266.2L1041.7 291.2L998.4 266.2L998.4 216.2zM1085 -33.8L1128.3 -8.8L1128.3 41.2L1085 66.2L1041.7 41.2L1041.7 -8.8zM1085 116.2L1128.3 141.2L1128.3 191.2L1085 216.2L1041.7 191.2L1041.7 141.2zM1128.3 191.2L1171.61 216.2L1171.61 266.2L1128.3 291.2L1085 266.2L1085 216.2zM1085 266.2L1128.3 291.2L1128.3 341.2L1085 366.2L1041.7 341.2L1041.7 291.2zM1128.3 341.2L1171.61 366.2L1171.61 416.2L1128.3 441.2L1085 416.2L1085 366.2zM1128.3 491.2L1171.61 516.2L1171.61 566.2L1128.3 591.2L1085 566.2L1085 516.2zM1171.61 -33.8L1214.91 -8.8L1214.91 41.2L1171.61 66.2L1128.3 41.2L1128.3 -8.8zM1171.61 416.2L1214.91 441.2L1214.91 491.2L1171.61 516.2L1128.3 491.2L1128.3 441.2zM1214.91 491.2L1258.21 516.2L1258.21 566.2L1214.91 591.2L1171.61 566.2L1171.61 516.2zM1301.51 41.2L1344.82 66.2L1344.82 116.2L1301.51 141.2L1258.21 116.2L1258.21 66.2zM1301.51 191.2L1344.82 216.2L1344.82 266.2L1301.51 291.2L1258.21 266.2L1258.21 216.2zM1258.21 266.2L1301.51 291.2L1301.51 341.2L1258.21 366.2L1214.91 341.2L1214.91 291.2zM1301.51 341.2L1344.82 366.2L1344.82 416.2L1301.51 441.2L1258.21 416.2L1258.21 366.2zM1258.21 416.2L1301.51 441.2L1301.51 491.2L1258.21 516.2L1214.91 491.2L1214.91 441.2zM1301.51 491.2L1344.82 516.2L1344.82 566.2L1301.51 591.2L1258.21 566.2L1258.21 516.2zM1388.12 41.2L1431.42 66.2L1431.42 116.2L1388.12 141.2L1344.82 116.2L1344.82 66.2zM1388.12 341.2L1431.42 366.2L1431.42 416.2L1388.12 441.2L1344.82 416.2L1344.82 366.2zM1474.72 191.2L1518.03 216.2L1518.03 266.2L1474.72 291.2L1431.42 266.2L1431.42 216.2zM1431.42 416.2L1474.72 441.2L1474.72 491.2L1431.42 516.2L1388.12 491.2L1388.12 441.2z" stroke="rgba(6, 80, 156, 0.93)" stroke-width="2"></path></g><defs><mask id="SvgjsMask1001"><rect width="1440" height="560" fill="#ffffff"></rect></mask></defs></svg>