<svg xmlns="http://www.w3.org/2000/svg" version="1.1" xmlns:xlink="http://www.w3.org/1999/xlink" xmlns:svgjs="http://svgjs.dev/svgjs" width="1440" height="560" preserveAspectRatio="none" viewBox="0 0 1440 560"><g mask="url(&quot;#SvgjsMask1013&quot;)" fill="none"><rect width="1440" height="560" x="0" y="0" fill="#0e2a47"></rect><path d="M21.32 164L86.27 201.5L86.27 276.5L21.32 314L-43.63 276.5L-43.63 201.5zM281.13 164L346.09 201.5L346.09 276.5L281.13 314L216.18 276.5L216.18 201.5zM411.04 -61L476 -23.5L476 51.5L411.04 89L346.09 51.5L346.09 -23.5zM605.9 276.5L670.86 314L670.86 389L605.9 426.5L540.95 389L540.95 314zM605.9 501.5L670.86 539L670.86 614L605.9 651.5L540.95 614L540.95 539zM670.86 164L735.81 201.5L735.81 276.5L670.86 314L605.9 276.5L605.9 201.5zM670.86 389L735.81 426.5L735.81 501.5L670.86 539L605.9 501.5L605.9 426.5zM735.81 501.5L800.77 539L800.77 614L735.81 651.5L670.86 614L670.86 539zM800.76 -61L865.72 -23.5L865.72 51.5L800.76 89L735.81 51.5L735.81 -23.5zM800.76 164L865.72 201.5L865.72 276.5L800.76 314L735.81 276.5L735.81 201.5zM800.76 389L865.72 426.5L865.72 501.5L800.76 539L735.81 501.5L735.81 426.5zM995.63 276.5L1060.58 314L1060.58 389L995.63 426.5L930.67 389L930.67 314zM930.67 389L995.63 426.5L995.63 501.5L930.67 539L865.72 501.5L865.72 426.5zM1060.58 -61L1125.53 -23.5L1125.53 51.5L1060.58 89L995.63 51.5L995.63 -23.5zM1125.53 276.5L1190.49 314L1190.49 389L1125.53 426.5L1060.58 389L1060.58 314zM1125.53 501.5L1190.49 539L1190.49 614L1125.53 651.5L1060.58 614L1060.58 539zM1190.49 -61L1255.44 -23.5L1255.44 51.5L1190.49 89L1125.53 51.5L1125.53 -23.5zM1385.35 51.5L1450.3 89L1450.3 164L1385.35 201.5L1320.39 164L1320.39 89zM1320.39 164L1385.35 201.5L1385.35 276.5L1320.39 314L1255.44 276.5L1255.44 201.5zM1320.39 389L1385.35 426.5L1385.35 501.5L1320.39 539L1255.44 501.5L1255.44 426.5zM1385.35 501.5L1450.3 539L1450.3 614L1385.35 651.5L1320.39 614L1320.39 539zM1450.3 389L1515.26 426.5L1515.26 501.5L1450.3 539L1385.35 501.5L1385.35 426.5z" stroke="rgba(3, 48, 93, 0.6)" stroke-width="2"></path><path d="M13.82 164 a7.5 7.5 0 1 0 15 0 a7.5 7.5 0 1 0 -15 0zM78.77 201.5 a7.5 7.5 0 1 0 15 0 a7.5 7.5 0 1 0 -15 0zM78.77 276.5 a7.5 7.5 0 1 0 15 0 a7.5 7.5 0 1 0 -15 0zM13.82 314 a7.5 7.5 0 1 0 15 0 a7.5 7.5 0 1 0 -15 0zM-51.13 276.5 a7.5 7.5 0 1 0 15 0 a7.5 7.5 0 1 0 -15 0zM-51.13 201.5 a7.5 7.5 0 1 0 15 0 a7.5 7.5 0 1 0 -15 0zM273.63 164 a7.5 7.5 0 1 0 15 0 a7.5 7.5 0 1 0 -15 0zM338.59 201.5 a7.5 7.5 0 1 0 15 0 a7.5 7.5 0 1 0 -15 0zM338.59 276.5 a7.5 7.5 0 1 0 15 0 a7.5 7.5 0 1 0 -15 0zM273.63 314 a7.5 7.5 0 1 0 15 0 a7.5 7.5 0 1 0 -15 0zM208.68 276.5 a7.5 7.5 0 1 0 15 0 a7.5 7.5 0 1 0 -15 0zM208.68 201.5 a7.5 7.5 0 1 0 15 0 a7.5 7.5 0 1 0 -15 0zM403.54 -61 a7.5 7.5 0 1 0 15 0 a7.5 7.5 0 1 0 -15 0zM468.5 -23.5 a7.5 7.5 0 1 0 15 0 a7.5 7.5 0 1 0 -15 0zM468.5 51.5 a7.5 7.5 0 1 0 15 0 a7.5 7.5 0 1 0 -15 0zM403.54 89 a7.5 7.5 0 1 0 15 0 a7.5 7.5 0 1 0 -15 0zM338.59 51.5 a7.5 7.5 0 1 0 15 0 a7.5 7.5 0 1 0 -15 0zM338.59 -23.5 a7.5 7.5 0 1 0 15 0 a7.5 7.5 0 1 0 -15 0zM598.4 276.5 a7.5 7.5 0 1 0 15 0 a7.5 7.5 0 1 0 -15 0zM663.36 314 a7.5 7.5 0 1 0 15 0 a7.5 7.5 0 1 0 -15 0zM663.36 389 a7.5 7.5 0 1 0 15 0 a7.5 7.5 0 1 0 -15 0zM598.4 426.5 a7.5 7.5 0 1 0 15 0 a7.5 7.5 0 1 0 -15 0zM533.45 389 a7.5 7.5 0 1 0 15 0 a7.5 7.5 0 1 0 -15 0zM533.45 314 a7.5 7.5 0 1 0 15 0 a7.5 7.5 0 1 0 -15 0zM598.4 501.5 a7.5 7.5 0 1 0 15 0 a7.5 7.5 0 1 0 -15 0zM663.36 539 a7.5 7.5 0 1 0 15 0 a7.5 7.5 0 1 0 -15 0zM663.36 614 a7.5 7.5 0 1 0 15 0 a7.5 7.5 0 1 0 -15 0zM598.4 651.5 a7.5 7.5 0 1 0 15 0 a7.5 7.5 0 1 0 -15 0zM533.45 614 a7.5 7.5 0 1 0 15 0 a7.5 7.5 0 1 0 -15 0zM533.45 539 a7.5 7.5 0 1 0 15 0 a7.5 7.5 0 1 0 -15 0zM663.36 164 a7.5 7.5 0 1 0 15 0 a7.5 7.5 0 1 0 -15 0zM728.31 201.5 a7.5 7.5 0 1 0 15 0 a7.5 7.5 0 1 0 -15 0zM728.31 276.5 a7.5 7.5 0 1 0 15 0 a7.5 7.5 0 1 0 -15 0zM598.4 201.5 a7.5 7.5 0 1 0 15 0 a7.5 7.5 0 1 0 -15 0zM728.31 426.5 a7.5 7.5 0 1 0 15 0 a7.5 7.5 0 1 0 -15 0zM728.31 501.5 a7.5 7.5 0 1 0 15 0 a7.5 7.5 0 1 0 -15 0zM793.27 539 a7.5 7.5 0 1 0 15 0 a7.5 7.5 0 1 0 -15 0zM793.27 614 a7.5 7.5 0 1 0 15 0 a7.5 7.5 0 1 0 -15 0zM728.31 651.5 a7.5 7.5 0 1 0 15 0 a7.5 7.5 0 1 0 -15 0zM793.26 -61 a7.5 7.5 0 1 0 15 0 a7.5 7.5 0 1 0 -15 0zM858.22 -23.5 a7.5 7.5 0 1 0 15 0 a7.5 7.5 0 1 0 -15 0zM858.22 51.5 a7.5 7.5 0 1 0 15 0 a7.5 7.5 0 1 0 -15 0zM793.26 89 a7.5 7.5 0 1 0 15 0 a7.5 7.5 0 1 0 -15 0zM728.31 51.5 a7.5 7.5 0 1 0 15 0 a7.5 7.5 0 1 0 -15 0zM728.31 -23.5 a7.5 7.5 0 1 0 15 0 a7.5 7.5 0 1 0 -15 0zM793.26 164 a7.5 7.5 0 1 0 15 0 a7.5 7.5 0 1 0 -15 0zM858.22 201.5 a7.5 7.5 0 1 0 15 0 a7.5 7.5 0 1 0 -15 0zM858.22 276.5 a7.5 7.5 0 1 0 15 0 a7.5 7.5 0 1 0 -15 0zM793.26 314 a7.5 7.5 0 1 0 15 0 a7.5 7.5 0 1 0 -15 0zM793.26 389 a7.5 7.5 0 1 0 15 0 a7.5 7.5 0 1 0 -15 0zM858.22 426.5 a7.5 7.5 0 1 0 15 0 a7.5 7.5 0 1 0 -15 0zM858.22 501.5 a7.5 7.5 0 1 0 15 0 a7.5 7.5 0 1 0 -15 0zM793.26 539 a7.5 7.5 0 1 0 15 0 a7.5 7.5 0 1 0 -15 0zM988.13 276.5 a7.5 7.5 0 1 0 15 0 a7.5 7.5 0 1 0 -15 0zM1053.08 314 a7.5 7.5 0 1 0 15 0 a7.5 7.5 0 1 0 -15 0zM1053.08 389 a7.5 7.5 0 1 0 15 0 a7.5 7.5 0 1 0 -15 0zM988.13 426.5 a7.5 7.5 0 1 0 15 0 a7.5 7.5 0 1 0 -15 0zM923.17 389 a7.5 7.5 0 1 0 15 0 a7.5 7.5 0 1 0 -15 0zM923.17 314 a7.5 7.5 0 1 0 15 0 a7.5 7.5 0 1 0 -15 0zM988.13 501.5 a7.5 7.5 0 1 0 15 0 a7.5 7.5 0 1 0 -15 0zM923.17 539 a7.5 7.5 0 1 0 15 0 a7.5 7.5 0 1 0 -15 0zM1053.08 -61 a7.5 7.5 0 1 0 15 0 a7.5 7.5 0 1 0 -15 0zM1118.03 -23.5 a7.5 7.5 0 1 0 15 0 a7.5 7.5 0 1 0 -15 0zM1118.03 51.5 a7.5 7.5 0 1 0 15 0 a7.5 7.5 0 1 0 -15 0zM1053.08 89 a7.5 7.5 0 1 0 15 0 a7.5 7.5 0 1 0 -15 0zM988.13 51.5 a7.5 7.5 0 1 0 15 0 a7.5 7.5 0 1 0 -15 0zM988.13 -23.5 a7.5 7.5 0 1 0 15 0 a7.5 7.5 0 1 0 -15 0zM1118.03 276.5 a7.5 7.5 0 1 0 15 0 a7.5 7.5 0 1 0 -15 0zM1182.99 314 a7.5 7.5 0 1 0 15 0 a7.5 7.5 0 1 0 -15 0zM1182.99 389 a7.5 7.5 0 1 0 15 0 a7.5 7.5 0 1 0 -15 0zM1118.03 426.5 a7.5 7.5 0 1 0 15 0 a7.5 7.5 0 1 0 -15 0zM1118.03 501.5 a7.5 7.5 0 1 0 15 0 a7.5 7.5 0 1 0 -15 0zM1182.99 539 a7.5 7.5 0 1 0 15 0 a7.5 7.5 0 1 0 -15 0zM1182.99 614 a7.5 7.5 0 1 0 15 0 a7.5 7.5 0 1 0 -15 0zM1118.03 651.5 a7.5 7.5 0 1 0 15 0 a7.5 7.5 0 1 0 -15 0zM1053.08 614 a7.5 7.5 0 1 0 15 0 a7.5 7.5 0 1 0 -15 0zM1053.08 539 a7.5 7.5 0 1 0 15 0 a7.5 7.5 0 1 0 -15 0zM1182.99 -61 a7.5 7.5 0 1 0 15 0 a7.5 7.5 0 1 0 -15 0zM1247.94 -23.5 a7.5 7.5 0 1 0 15 0 a7.5 7.5 0 1 0 -15 0zM1247.94 51.5 a7.5 7.5 0 1 0 15 0 a7.5 7.5 0 1 0 -15 0zM1182.99 89 a7.5 7.5 0 1 0 15 0 a7.5 7.5 0 1 0 -15 0zM1377.85 51.5 a7.5 7.5 0 1 0 15 0 a7.5 7.5 0 1 0 -15 0zM1442.8 89 a7.5 7.5 0 1 0 15 0 a7.5 7.5 0 1 0 -15 0zM1442.8 164 a7.5 7.5 0 1 0 15 0 a7.5 7.5 0 1 0 -15 0zM1377.85 201.5 a7.5 7.5 0 1 0 15 0 a7.5 7.5 0 1 0 -15 0zM1312.89 164 a7.5 7.5 0 1 0 15 0 a7.5 7.5 0 1 0 -15 0zM1312.89 89 a7.5 7.5 0 1 0 15 0 a7.5 7.5 0 1 0 -15 0zM1377.85 276.5 a7.5 7.5 0 1 0 15 0 a7.5 7.5 0 1 0 -15 0zM1312.89 314 a7.5 7.5 0 1 0 15 0 a7.5 7.5 0 1 0 -15 0zM1247.94 276.5 a7.5 7.5 0 1 0 15 0 a7.5 7.5 0 1 0 -15 0zM1247.94 201.5 a7.5 7.5 0 1 0 15 0 a7.5 7.5 0 1 0 -15 0zM1312.89 389 a7.5 7.5 0 1 0 15 0 a7.5 7.5 0 1 0 -15 0zM1377.85 426.5 a7.5 7.5 0 1 0 15 0 a7.5 7.5 0 1 0 -15 0zM1377.85 501.5 a7.5 7.5 0 1 0 15 0 a7.5 7.5 0 1 0 -15 0zM1312.89 539 a7.5 7.5 0 1 0 15 0 a7.5 7.5 0 1 0 -15 0zM1247.94 501.5 a7.5 7.5 0 1 0 15 0 a7.5 7.5 0 1 0 -15 0zM1247.94 426.5 a7.5 7.5 0 1 0 15 0 a7.5 7.5 0 1 0 -15 0zM1442.8 539 a7.5 7.5 0 1 0 15 0 a7.5 7.5 0 1 0 -15 0zM1442.8 614 a7.5 7.5 0 1 0 15 0 a7.5 7.5 0 1 0 -15 0zM1377.85 651.5 a7.5 7.5 0 1 0 15 0 a7.5 7.5 0 1 0 -15 0zM1312.89 614 a7.5 7.5 0 1 0 15 0 a7.5 7.5 0 1 0 -15 0zM1442.8 389 a7.5 7.5 0 1 0 15 0 a7.5 7.5 0 1 0 -15 0zM1507.76 426.5 a7.5 7.5 0 1 0 15 0 a7.5 7.5 0 1 0 -15 0zM1507.76 501.5 a7.5 7.5 0 1 0 15 0 a7.5 7.5 0 1 0 -15 0z" fill="rgba(3, 48, 93, 0.6)"></path><path d="M61.62 73.47L104.93 98.47L104.93 148.47L61.62 173.47L18.32 148.47L18.32 98.47zM18.32 448.47L61.62 473.47L61.62 523.47L18.32 548.47L-24.98 523.47L-24.98 473.47zM148.23 73.47L191.53 98.47L191.53 148.47L148.23 173.47L104.93 148.47L104.93 98.47zM148.23 373.47L191.53 398.47L191.53 448.47L148.23 473.47L104.93 448.47L104.93 398.47zM148.23 523.47L191.53 548.47L191.53 598.47L148.23 623.47L104.93 598.47L104.93 548.47zM191.53 148.47L234.83 173.47L234.83 223.47L191.53 248.47L148.23 223.47L148.23 173.47zM234.83 523.47L278.13 548.47L278.13 598.47L234.83 623.47L191.53 598.47L191.53 548.47zM321.44 373.47L364.74 398.47L364.74 448.47L321.44 473.47L278.13 448.47L278.13 398.47zM278.13 448.47L321.44 473.47L321.44 523.47L278.13 548.47L234.83 523.47L234.83 473.47zM321.44 523.47L364.74 548.47L364.74 598.47L321.44 623.47L278.13 598.47L278.13 548.47zM364.74 -1.53L408.04 23.47L408.04 73.47L364.74 98.47L321.44 73.47L321.44 23.47zM364.74 148.47L408.04 173.47L408.04 223.47L364.74 248.47L321.44 223.47L321.44 173.47zM408.04 223.47L451.35 248.47L451.35 298.47L408.04 323.47L364.74 298.47L364.74 248.47zM408.04 373.47L451.35 398.47L451.35 448.47L408.04 473.47L364.74 448.47L364.74 398.47zM364.74 448.47L408.04 473.47L408.04 523.47L364.74 548.47L321.44 523.47L321.44 473.47zM408.04 523.47L451.35 548.47L451.35 598.47L408.04 623.47L364.74 598.47L364.74 548.47zM494.65 73.47L537.95 98.47L537.95 148.47L494.65 173.47L451.35 148.47L451.35 98.47zM451.35 148.47L494.65 173.47L494.65 223.47L451.35 248.47L408.04 223.47L408.04 173.47zM494.65 223.47L537.95 248.47L537.95 298.47L494.65 323.47L451.35 298.47L451.35 248.47zM451.35 298.47L494.65 323.47L494.65 373.47L451.35 398.47L408.04 373.47L408.04 323.47zM451.35 448.47L494.65 473.47L494.65 523.47L451.35 548.47L408.04 523.47L408.04 473.47zM537.95 -1.53L581.25 23.47L581.25 73.47L537.95 98.47L494.65 73.47L494.65 23.47zM537.95 298.47L581.25 323.47L581.25 373.47L537.95 398.47L494.65 373.47L494.65 323.47zM581.25 373.47L624.56 398.47L624.56 448.47L581.25 473.47L537.95 448.47L537.95 398.47zM581.25 523.47L624.56 548.47L624.56 598.47L581.25 623.47L537.95 598.47L537.95 548.47zM667.86 73.47L711.16 98.47L711.16 148.47L667.86 173.47L624.56 148.47L624.56 98.47zM624.56 148.47L667.86 173.47L667.86 223.47L624.56 248.47L581.25 223.47L581.25 173.47zM667.86 373.47L711.16 398.47L711.16 448.47L667.86 473.47L624.56 448.47L624.56 398.47zM667.86 523.47L711.16 548.47L711.16 598.47L667.86 623.47L624.56 598.47L624.56 548.47zM754.46 73.47L797.77 98.47L797.77 148.47L754.46 173.47L711.16 148.47L711.16 98.47zM711.16 298.47L754.46 323.47L754.46 373.47L711.16 398.47L667.86 373.47L667.86 323.47zM754.46 373.47L797.77 398.47L797.77 448.47L754.46 473.47L711.16 448.47L711.16 398.47zM797.77 -1.53L841.07 23.47L841.07 73.47L797.77 98.47L754.46 73.47L754.46 23.47zM797.77 298.47L841.07 323.47L841.07 373.47L797.77 398.47L754.46 373.47L754.46 323.47zM841.07 523.47L884.37 548.47L884.37 598.47L841.07 623.47L797.77 598.47L797.77 548.47zM927.67 73.47L970.98 98.47L970.98 148.47L927.67 173.47L884.37 148.47L884.37 98.47zM884.37 148.47L927.67 173.47L927.67 223.47L884.37 248.47L841.07 223.47L841.07 173.47zM884.37 298.47L927.67 323.47L927.67 373.47L884.37 398.47L841.07 373.47L841.07 323.47zM884.37 448.47L927.67 473.47L927.67 523.47L884.37 548.47L841.07 523.47L841.07 473.47zM927.67 523.47L970.98 548.47L970.98 598.47L927.67 623.47L884.37 598.47L884.37 548.47zM970.98 -1.53L1014.28 23.47L1014.28 73.47L970.98 98.47L927.67 73.47L927.67 23.47zM970.98 148.47L1014.28 173.47L1014.28 223.47L970.98 248.47L927.67 223.47L927.67 173.47zM1014.28 223.47L1057.58 248.47L1057.58 298.47L1014.28 323.47L970.98 298.47L970.98 248.47zM970.98 298.47L1014.28 323.47L1014.28 373.47L970.98 398.47L927.67 373.47L927.67 323.47zM1014.28 373.47L1057.58 398.47L1057.58 448.47L1014.28 473.47L970.98 448.47L970.98 398.47zM970.98 448.47L1014.28 473.47L1014.28 523.47L970.98 548.47L927.67 523.47L927.67 473.47zM1057.58 -1.53L1100.88 23.47L1100.88 73.47L1057.58 98.47L1014.28 73.47L1014.28 23.47zM1100.88 73.47L1144.18 98.47L1144.18 148.47L1100.88 173.47L1057.58 148.47L1057.58 98.47zM1100.88 373.47L1144.18 398.47L1144.18 448.47L1100.88 473.47L1057.58 448.47L1057.58 398.47zM1057.58 448.47L1100.88 473.47L1100.88 523.47L1057.58 548.47L1014.28 523.47L1014.28 473.47zM1144.18 148.47L1187.49 173.47L1187.49 223.47L1144.18 248.47L1100.88 223.47L1100.88 173.47zM1187.49 223.47L1230.79 248.47L1230.79 298.47L1187.49 323.47L1144.18 298.47L1144.18 248.47zM1144.18 298.47L1187.49 323.47L1187.49 373.47L1144.18 398.47L1100.88 373.47L1100.88 323.47zM1187.49 373.47L1230.79 398.47L1230.79 448.47L1187.49 473.47L1144.18 448.47L1144.18 398.47zM1187.49 523.47L1230.79 548.47L1230.79 598.47L1187.49 623.47L1144.18 598.47L1144.18 548.47zM1230.79 -1.53L1274.09 23.47L1274.09 73.47L1230.79 98.47L1187.49 73.47L1187.49 23.47zM1274.09 373.47L1317.39 398.47L1317.39 448.47L1274.09 473.47L1230.79 448.47L1230.79 398.47zM1230.79 448.47L1274.09 473.47L1274.09 523.47L1230.79 548.47L1187.49 523.47L1187.49 473.47zM1274.09 523.47L1317.39 548.47L1317.39 598.47L1274.09 623.47L1230.79 598.47L1230.79 548.47zM1317.39 298.47L1360.7 323.47L1360.7 373.47L1317.39 398.47L1274.09 373.47L1274.09 323.47zM1317.39 448.47L1360.7 473.47L1360.7 523.47L1317.39 548.47L1274.09 523.47L1274.09 473.47zM1404 -1.53L1447.3 23.47L1447.3 73.47L1404 98.47L1360.7 73.47L1360.7 23.47zM1404 148.47L1447.3 173.47L1447.3 223.47L1404 248.47L1360.7 223.47L1360.7 173.47zM1447.3 223.47L1490.61 248.47L1490.61 298.47L1447.3 323.47L1404 298.47L1404 248.47zM1404 298.47L1447.3 323.47L1447.3 373.47L1404 398.47L1360.7 373.47L1360.7 323.47z" stroke="rgba(0, 74, 149, 0.93)" stroke-width="2"></path></g><defs><mask id="SvgjsMask1013"><rect width="1440" height="560" fill="#ffffff"></rect></mask></defs></svg>