<svg xmlns="http://www.w3.org/2000/svg" version="1.1" xmlns:xlink="http://www.w3.org/1999/xlink" xmlns:svgjs="http://svgjs.dev/svgjs" width="1440" height="560" preserveAspectRatio="none" viewBox="0 0 1440 560"><g mask="url(&quot;#SvgjsMask1008&quot;)" fill="none"><rect width="1440" height="560" x="0" y="0" fill="rgba(255, 255, 255, 1)"></rect><path d="M 0,68 C 57.6,99.2 172.8,237.4 288,224 C 403.2,210.6 460.8,-3.8 576,1 C 691.2,5.8 748.8,245 864,248 C 979.2,251 1036.8,19 1152,16 C 1267.2,13 1382.4,189.6 1440,233L1440 560L0 560z" fill="rgba(255, 255, 255, 1)"></path><path d="M 0,299 C 96,344.8 288,528.6 480,528 C 672,527.4 768,313.8 960,296 C 1152,278.2 1344,410.4 1440,439L1440 560L0 560z" fill="rgba(15, 47, 143, 1)"></path></g><defs><mask id="SvgjsMask1008"><rect width="1440" height="560" fill="#ffffff"></rect></mask></defs></svg>