<svg xmlns="http://www.w3.org/2000/svg" version="1.1" xmlns:xlink="http://www.w3.org/1999/xlink" xmlns:svgjs="http://svgjs.dev/svgjs" width="1440" height="560" preserveAspectRatio="none" viewBox="0 0 1440 560"><g mask="url(&quot;#SvgjsMask1335&quot;)" fill="none"><rect width="1440" height="560" x="0" y="0" fill="rgba(0, 0, 0, 1)"></rect><path d="M -80.2093046456337,180 C -22.61,223.2 92.59,386.4 207.7906953543663,396 C 322.99,405.6 380.59,220 495.79069535436633,228 C 610.99,236 668.59,466.4 783.7906953543663,436 C 898.99,405.6 956.59,77 1071.7906953543663,76 C 1186.99,75 1244.59,415 1359.7906953543663,431 C 1474.99,447 1631.75,177.4 1647.7906953543663,156 C 1663.83,134.6 1481.56,290.4 1440,324" stroke="rgba(255, 255, 255, 0.58)" stroke-width="2"></path><path d="M -371.08742205024544,73 C -313.49,153.4 -198.29,469.4 -83.08742205024544,475 C 32.11,480.6 89.71,132.6 204.91257794975456,101 C 320.11,69.4 377.71,303.4 492.91257794975456,317 C 608.11,330.6 665.71,134 780.9125779497546,169 C 896.11,204 953.71,493.2 1068.9125779497544,492 C 1184.11,490.8 1282.7,176.8 1356.9125779497544,163 C 1431.13,149.2 1423.38,371 1440,423" stroke="rgba(255, 255, 255, 0.58)" stroke-width="2"></path></g><defs><mask id="SvgjsMask1335"><rect width="1440" height="560" fill="#ffffff"></rect></mask></defs></svg>