<svg xmlns="http://www.w3.org/2000/svg" version="1.1" xmlns:xlink="http://www.w3.org/1999/xlink" xmlns:svgjs="http://svgjs.dev/svgjs" width="3000" height="2000" preserveAspectRatio="none" viewBox="0 0 3000 2000"><g mask="url(&quot;#SvgjsMask1011&quot;)" fill="none"><rect width="3000" height="2000" x="0" y="0" fill="rgba(255, 255, 255, 1)"></rect><path d="M1590.72 2265.91C1825.04 2176.15 1606.46 1567.64 2196.54 1465.66 2786.62 1363.68 3051.92 736.24 3408.18 705.66" stroke="rgba(0, 0, 0, 0.58)" stroke-width="2"></path><path d="M1477.81 2058.04C1727.64 1973.04 1483.48 1364.81 2143.67 1238.95 2803.86 1113.09 3065.17 309.85 3475.39 258.95" stroke="rgba(0, 0, 0, 0.58)" stroke-width="2"></path><path d="M403.32 2177.03C896.61 2018.07 1041.13 597.15 1735.88 588.95 2430.62 580.75 2681.02 1359.01 3068.43 1388.95" stroke="rgba(0, 0, 0, 0.58)" stroke-width="2"></path><path d="M1082.27 2189.32C1560.08 1939.85 1596.37 378.97 2217.51 356.34 2838.64 333.71 3005.09 1134.97 3352.74 1176.34" stroke="rgba(0, 0, 0, 0.58)" stroke-width="2"></path><path d="M1576.88 2290.81C1859.55 2119.15 1566.16 1277 2220.4 1135.05 2874.64 993.1 3141.84 457.21 3507.44 435.05" stroke="rgba(0, 0, 0, 0.58)" stroke-width="2"></path></g><defs><mask id="SvgjsMask1011"><rect width="3000" height="2000" fill="#ffffff"></rect></mask></defs></svg>