<svg xmlns="http://www.w3.org/2000/svg" version="1.1" xmlns:xlink="http://www.w3.org/1999/xlink" xmlns:svgjs="http://svgjs.dev/svgjs" width="1440" height="560" preserveAspectRatio="none" viewBox="0 0 1440 560"><g mask="url(&quot;#SvgjsMask1005&quot;)" fill="none"><rect width="1440" height="560" x="0" y="0" fill="#0e2a47"></rect><path d="M71.78 506.16L136.74 543.66L136.74 618.66L71.78 656.16L6.83 618.66L6.83 543.66zM201.69 281.16L266.64 318.66L266.64 393.66L201.69 431.16L136.74 393.66L136.74 318.66zM136.74 393.66L201.69 431.16L201.69 506.16L136.74 543.66L71.78 506.16L71.78 431.16zM331.6 56.16L396.55 93.66L396.55 168.66L331.6 206.16L266.64 168.66L266.64 93.66zM331.6 281.16L396.55 318.66L396.55 393.66L331.6 431.16L266.64 393.66L266.64 318.66zM461.51 281.16L526.46 318.66L526.46 393.66L461.51 431.16L396.55 393.66L396.55 318.66zM591.41 281.16L656.37 318.66L656.37 393.66L591.41 431.16L526.46 393.66L526.46 318.66zM526.46 393.66L591.41 431.16L591.41 506.16L526.46 543.66L461.51 506.16L461.51 431.16zM721.32 506.16L786.28 543.66L786.28 618.66L721.32 656.16L656.37 618.66L656.37 543.66zM981.14 56.16L1046.09 93.66L1046.09 168.66L981.14 206.16L916.18 168.66L916.18 93.66zM1111.04 281.16L1176 318.66L1176 393.66L1111.04 431.16L1046.09 393.66L1046.09 318.66zM1176 168.66L1240.95 206.16L1240.95 281.16L1176 318.66L1111.04 281.16L1111.04 206.16zM1240.95 281.16L1305.9 318.66L1305.9 393.66L1240.95 431.16L1176 393.66L1176 318.66zM1176 393.66L1240.95 431.16L1240.95 506.16L1176 543.66L1111.04 506.16L1111.04 431.16zM1435.81 -56.34L1500.77 -18.84L1500.77 56.16L1435.81 93.66L1370.86 56.16L1370.86 -18.84z" stroke="#03305d" stroke-width="2"></path><path d="M64.28 506.16 a7.5 7.5 0 1 0 15 0 a7.5 7.5 0 1 0 -15 0zM129.24 543.66 a7.5 7.5 0 1 0 15 0 a7.5 7.5 0 1 0 -15 0zM129.24 618.66 a7.5 7.5 0 1 0 15 0 a7.5 7.5 0 1 0 -15 0zM64.28 656.16 a7.5 7.5 0 1 0 15 0 a7.5 7.5 0 1 0 -15 0zM-0.67 618.66 a7.5 7.5 0 1 0 15 0 a7.5 7.5 0 1 0 -15 0zM-0.67 543.66 a7.5 7.5 0 1 0 15 0 a7.5 7.5 0 1 0 -15 0zM194.19 281.16 a7.5 7.5 0 1 0 15 0 a7.5 7.5 0 1 0 -15 0zM259.14 318.66 a7.5 7.5 0 1 0 15 0 a7.5 7.5 0 1 0 -15 0zM259.14 393.66 a7.5 7.5 0 1 0 15 0 a7.5 7.5 0 1 0 -15 0zM194.19 431.16 a7.5 7.5 0 1 0 15 0 a7.5 7.5 0 1 0 -15 0zM129.24 393.66 a7.5 7.5 0 1 0 15 0 a7.5 7.5 0 1 0 -15 0zM129.24 318.66 a7.5 7.5 0 1 0 15 0 a7.5 7.5 0 1 0 -15 0zM194.19 506.16 a7.5 7.5 0 1 0 15 0 a7.5 7.5 0 1 0 -15 0zM64.28 431.16 a7.5 7.5 0 1 0 15 0 a7.5 7.5 0 1 0 -15 0zM324.1 56.16 a7.5 7.5 0 1 0 15 0 a7.5 7.5 0 1 0 -15 0zM389.05 93.66 a7.5 7.5 0 1 0 15 0 a7.5 7.5 0 1 0 -15 0zM389.05 168.66 a7.5 7.5 0 1 0 15 0 a7.5 7.5 0 1 0 -15 0zM324.1 206.16 a7.5 7.5 0 1 0 15 0 a7.5 7.5 0 1 0 -15 0zM259.14 168.66 a7.5 7.5 0 1 0 15 0 a7.5 7.5 0 1 0 -15 0zM259.14 93.66 a7.5 7.5 0 1 0 15 0 a7.5 7.5 0 1 0 -15 0zM324.1 281.16 a7.5 7.5 0 1 0 15 0 a7.5 7.5 0 1 0 -15 0zM389.05 318.66 a7.5 7.5 0 1 0 15 0 a7.5 7.5 0 1 0 -15 0zM389.05 393.66 a7.5 7.5 0 1 0 15 0 a7.5 7.5 0 1 0 -15 0zM324.1 431.16 a7.5 7.5 0 1 0 15 0 a7.5 7.5 0 1 0 -15 0zM454.01 281.16 a7.5 7.5 0 1 0 15 0 a7.5 7.5 0 1 0 -15 0zM518.96 318.66 a7.5 7.5 0 1 0 15 0 a7.5 7.5 0 1 0 -15 0zM518.96 393.66 a7.5 7.5 0 1 0 15 0 a7.5 7.5 0 1 0 -15 0zM454.01 431.16 a7.5 7.5 0 1 0 15 0 a7.5 7.5 0 1 0 -15 0zM583.91 281.16 a7.5 7.5 0 1 0 15 0 a7.5 7.5 0 1 0 -15 0zM648.87 318.66 a7.5 7.5 0 1 0 15 0 a7.5 7.5 0 1 0 -15 0zM648.87 393.66 a7.5 7.5 0 1 0 15 0 a7.5 7.5 0 1 0 -15 0zM583.91 431.16 a7.5 7.5 0 1 0 15 0 a7.5 7.5 0 1 0 -15 0zM583.91 506.16 a7.5 7.5 0 1 0 15 0 a7.5 7.5 0 1 0 -15 0zM518.96 543.66 a7.5 7.5 0 1 0 15 0 a7.5 7.5 0 1 0 -15 0zM454.01 506.16 a7.5 7.5 0 1 0 15 0 a7.5 7.5 0 1 0 -15 0zM713.82 506.16 a7.5 7.5 0 1 0 15 0 a7.5 7.5 0 1 0 -15 0zM778.78 543.66 a7.5 7.5 0 1 0 15 0 a7.5 7.5 0 1 0 -15 0zM778.78 618.66 a7.5 7.5 0 1 0 15 0 a7.5 7.5 0 1 0 -15 0zM713.82 656.16 a7.5 7.5 0 1 0 15 0 a7.5 7.5 0 1 0 -15 0zM648.87 618.66 a7.5 7.5 0 1 0 15 0 a7.5 7.5 0 1 0 -15 0zM648.87 543.66 a7.5 7.5 0 1 0 15 0 a7.5 7.5 0 1 0 -15 0zM973.64 56.16 a7.5 7.5 0 1 0 15 0 a7.5 7.5 0 1 0 -15 0zM1038.59 93.66 a7.5 7.5 0 1 0 15 0 a7.5 7.5 0 1 0 -15 0zM1038.59 168.66 a7.5 7.5 0 1 0 15 0 a7.5 7.5 0 1 0 -15 0zM973.64 206.16 a7.5 7.5 0 1 0 15 0 a7.5 7.5 0 1 0 -15 0zM908.68 168.66 a7.5 7.5 0 1 0 15 0 a7.5 7.5 0 1 0 -15 0zM908.68 93.66 a7.5 7.5 0 1 0 15 0 a7.5 7.5 0 1 0 -15 0zM1103.54 281.16 a7.5 7.5 0 1 0 15 0 a7.5 7.5 0 1 0 -15 0zM1168.5 318.66 a7.5 7.5 0 1 0 15 0 a7.5 7.5 0 1 0 -15 0zM1168.5 393.66 a7.5 7.5 0 1 0 15 0 a7.5 7.5 0 1 0 -15 0zM1103.54 431.16 a7.5 7.5 0 1 0 15 0 a7.5 7.5 0 1 0 -15 0zM1038.59 393.66 a7.5 7.5 0 1 0 15 0 a7.5 7.5 0 1 0 -15 0zM1038.59 318.66 a7.5 7.5 0 1 0 15 0 a7.5 7.5 0 1 0 -15 0zM1168.5 168.66 a7.5 7.5 0 1 0 15 0 a7.5 7.5 0 1 0 -15 0zM1233.45 206.16 a7.5 7.5 0 1 0 15 0 a7.5 7.5 0 1 0 -15 0zM1233.45 281.16 a7.5 7.5 0 1 0 15 0 a7.5 7.5 0 1 0 -15 0zM1103.54 206.16 a7.5 7.5 0 1 0 15 0 a7.5 7.5 0 1 0 -15 0zM1298.4 318.66 a7.5 7.5 0 1 0 15 0 a7.5 7.5 0 1 0 -15 0zM1298.4 393.66 a7.5 7.5 0 1 0 15 0 a7.5 7.5 0 1 0 -15 0zM1233.45 431.16 a7.5 7.5 0 1 0 15 0 a7.5 7.5 0 1 0 -15 0zM1233.45 506.16 a7.5 7.5 0 1 0 15 0 a7.5 7.5 0 1 0 -15 0zM1168.5 543.66 a7.5 7.5 0 1 0 15 0 a7.5 7.5 0 1 0 -15 0zM1103.54 506.16 a7.5 7.5 0 1 0 15 0 a7.5 7.5 0 1 0 -15 0zM1428.31 -56.34 a7.5 7.5 0 1 0 15 0 a7.5 7.5 0 1 0 -15 0zM1493.27 -18.84 a7.5 7.5 0 1 0 15 0 a7.5 7.5 0 1 0 -15 0zM1493.27 56.16 a7.5 7.5 0 1 0 15 0 a7.5 7.5 0 1 0 -15 0zM1428.31 93.66 a7.5 7.5 0 1 0 15 0 a7.5 7.5 0 1 0 -15 0zM1363.36 56.16 a7.5 7.5 0 1 0 15 0 a7.5 7.5 0 1 0 -15 0zM1363.36 -18.84 a7.5 7.5 0 1 0 15 0 a7.5 7.5 0 1 0 -15 0z" fill="#03305d"></path><path d="M43.46 45.08L86.77 70.08L86.77 120.08L43.46 145.08L0.16 120.08L0.16 70.08zM43.46 195.08L86.77 220.08L86.77 270.08L43.46 295.08L0.16 270.08L0.16 220.08zM43.46 345.08L86.77 370.08L86.77 420.08L43.46 445.08L0.16 420.08L0.16 370.08zM86.77 120.08L130.07 145.08L130.07 195.08L86.77 220.08L43.46 195.08L43.46 145.08zM130.07 345.08L173.37 370.08L173.37 420.08L130.07 445.08L86.77 420.08L86.77 370.08zM173.37 -29.92L216.67 -4.92L216.67 45.08L173.37 70.08L130.07 45.08L130.07 -4.92zM216.67 45.08L259.98 70.08L259.98 120.08L216.67 145.08L173.37 120.08L173.37 70.08zM173.37 270.08L216.67 295.08L216.67 345.08L173.37 370.08L130.07 345.08L130.07 295.08zM173.37 420.08L216.67 445.08L216.67 495.08L173.37 520.08L130.07 495.08L130.07 445.08zM259.98 120.08L303.28 145.08L303.28 195.08L259.98 220.08L216.67 195.08L216.67 145.08zM303.28 195.08L346.58 220.08L346.58 270.08L303.28 295.08L259.98 270.08L259.98 220.08zM303.28 345.08L346.58 370.08L346.58 420.08L303.28 445.08L259.98 420.08L259.98 370.08zM346.58 120.08L389.88 145.08L389.88 195.08L346.58 220.08L303.28 195.08L303.28 145.08zM476.49 345.08L519.79 370.08L519.79 420.08L476.49 445.08L433.19 420.08L433.19 370.08zM433.19 420.08L476.49 445.08L476.49 495.08L433.19 520.08L389.88 495.08L389.88 445.08zM563.09 195.08L606.39 220.08L606.39 270.08L563.09 295.08L519.79 270.08L519.79 220.08zM563.09 345.08L606.39 370.08L606.39 420.08L563.09 445.08L519.79 420.08L519.79 370.08zM606.39 -29.92L649.7 -4.92L649.7 45.08L606.39 70.08L563.09 45.08L563.09 -4.92zM649.7 45.08L693 70.08L693 120.08L649.7 145.08L606.39 120.08L606.39 70.08zM649.7 195.08L693 220.08L693 270.08L649.7 295.08L606.39 270.08L606.39 220.08zM693 270.08L736.3 295.08L736.3 345.08L693 370.08L649.7 345.08L649.7 295.08zM693 420.08L736.3 445.08L736.3 495.08L693 520.08L649.7 495.08L649.7 445.08zM822.91 195.08L866.21 220.08L866.21 270.08L822.91 295.08L779.61 270.08L779.61 220.08zM779.61 420.08L822.91 445.08L822.91 495.08L779.61 520.08L736.3 495.08L736.3 445.08zM822.91 495.08L866.21 520.08L866.21 570.08L822.91 595.08L779.61 570.08L779.61 520.08zM866.21 -29.92L909.51 -4.92L909.51 45.08L866.21 70.08L822.91 45.08L822.91 -4.92zM866.21 120.08L909.51 145.08L909.51 195.08L866.21 220.08L822.91 195.08L822.91 145.08zM909.51 195.08L952.82 220.08L952.82 270.08L909.51 295.08L866.21 270.08L866.21 220.08zM909.51 345.08L952.82 370.08L952.82 420.08L909.51 445.08L866.21 420.08L866.21 370.08zM909.51 495.08L952.82 520.08L952.82 570.08L909.51 595.08L866.21 570.08L866.21 520.08zM996.12 45.08L1039.42 70.08L1039.42 120.08L996.12 145.08L952.82 120.08L952.82 70.08zM952.82 120.08L996.12 145.08L996.12 195.08L952.82 220.08L909.51 195.08L909.51 145.08zM996.12 195.08L1039.42 220.08L1039.42 270.08L996.12 295.08L952.82 270.08L952.82 220.08zM952.82 270.08L996.12 295.08L996.12 345.08L952.82 370.08L909.51 345.08L909.51 295.08zM996.12 345.08L1039.42 370.08L1039.42 420.08L996.12 445.08L952.82 420.08L952.82 370.08zM952.82 420.08L996.12 445.08L996.12 495.08L952.82 520.08L909.51 495.08L909.51 445.08zM996.12 495.08L1039.42 520.08L1039.42 570.08L996.12 595.08L952.82 570.08L952.82 520.08zM1082.72 45.08L1126.03 70.08L1126.03 120.08L1082.72 145.08L1039.42 120.08L1039.42 70.08zM1039.42 120.08L1082.72 145.08L1082.72 195.08L1039.42 220.08L996.12 195.08L996.12 145.08zM1082.72 345.08L1126.03 370.08L1126.03 420.08L1082.72 445.08L1039.42 420.08L1039.42 370.08zM1126.03 270.08L1169.33 295.08L1169.33 345.08L1126.03 370.08L1082.72 345.08L1082.72 295.08zM1212.63 -29.92L1255.93 -4.92L1255.93 45.08L1212.63 70.08L1169.33 45.08L1169.33 -4.92zM1255.93 195.08L1299.24 220.08L1299.24 270.08L1255.93 295.08L1212.63 270.08L1212.63 220.08zM1212.63 420.08L1255.93 445.08L1255.93 495.08L1212.63 520.08L1169.33 495.08L1169.33 445.08zM1299.24 120.08L1342.54 145.08L1342.54 195.08L1299.24 220.08L1255.93 195.08L1255.93 145.08zM1299.24 270.08L1342.54 295.08L1342.54 345.08L1299.24 370.08L1255.93 345.08L1255.93 295.08zM1342.54 495.08L1385.84 520.08L1385.84 570.08L1342.54 595.08L1299.24 570.08L1299.24 520.08zM1385.84 120.08L1429.14 145.08L1429.14 195.08L1385.84 220.08L1342.54 195.08L1342.54 145.08zM1429.14 195.08L1472.45 220.08L1472.45 270.08L1429.14 295.08L1385.84 270.08L1385.84 220.08zM1385.84 420.08L1429.14 445.08L1429.14 495.08L1385.84 520.08L1342.54 495.08L1342.54 445.08zM1429.14 495.08L1472.45 520.08L1472.45 570.08L1429.14 595.08L1385.84 570.08L1385.84 520.08z" stroke="rgba(6, 80, 156, 0.93)" stroke-width="2"></path></g><defs><mask id="SvgjsMask1005"><rect width="1440" height="560" fill="#ffffff"></rect></mask></defs></svg>