<svg xmlns="http://www.w3.org/2000/svg" version="1.1" xmlns:xlink="http://www.w3.org/1999/xlink" xmlns:svgjs="http://svgjs.dev/svgjs" width="3000" height="2000" preserveAspectRatio="none" viewBox="0 0 3000 2000"><g mask="url(&quot;#SvgjsMask1008&quot;)" fill="none"><rect width="3000" height="2000" x="0" y="0" fill="rgba(255, 255, 255, 1)"></rect><path d="M -239.87771290250578,923 C -39.88,972.4 360.12,1213.2 760.1222870974942,1170 C 1160.12,1126.8 1360.12,660.8 1760.1222870974943,707 C 2160.12,753.2 2360.12,1418 2760.1222870974943,1401 C 3160.12,1384 3712.15,609.8 3760.1222870974943,622 C 3808.1,634.2 3152.02,1294 3000,1462" stroke="rgba(0, 0, 0, 0.58)" stroke-width="2"></path><path d="M -7.159343019292919,1498 C 192.84,1314.2 592.84,642.4 992.8406569807071,579 C 1392.84,515.6 1592.84,1140.8 1992.840656980707,1181 C 2392.84,1221.2 2592.84,724.4 2992.840656980707,780 C 3392.84,835.6 3991.41,1441.4 3992.840656980707,1459 C 3994.27,1476.6 3198.57,986.2 3000,868" stroke="rgba(0, 0, 0, 0.58)" stroke-width="2"></path><path d="M -646.2916249717143,1486 C -446.29,1301.2 -46.29,569.4 353.7083750282857,562 C 753.71,554.6 953.71,1389.8 1353.7083750282857,1449 C 1753.71,1508.2 1953.71,900.2 2353.7083750282854,858 C 2753.71,815.8 3224.45,1269.4 3353.7083750282854,1238 C 3482.97,1206.6 3070.74,808.4 3000,701" stroke="rgba(0, 0, 0, 0.58)" stroke-width="2"></path></g><defs><mask id="SvgjsMask1008"><rect width="3000" height="2000" fill="#ffffff"></rect></mask></defs></svg>